<?xml version="1.0" encoding="utf-8"?>
<svg xml:space="preserve" viewBox="0 0 100 100" y="0" x="0" xmlns="http://www.w3.org/2000/svg" id="圖層_1" version="1.1" style="height: 100%; width: 100%; background: none; shape-rendering: auto; animation-play-state: running; animation-delay: 0s;" width="199px" height="199px"><g class="ldl-scale" style="transform-origin: 50% 50%; transform: rotate(0deg) scale(1, 1); animation-play-state: running; animation-delay: 0s;"><g class="ldl-ani" style=""><g class="ldl-layer" style="animation-play-state: running; animation-delay: 0s;"><g class="ldl-ani" style="transform-origin: 50px 50px; transform: scale(0.91); animation: 1.25s linear -0.833333s infinite normal forwards running breath-a75bdb9f-71a3-41a9-a42b-c3f513745e19;"><circle fill="#333" r="40" cy="50" cx="50" style="fill: rgb(113, 134, 150); animation-play-state: running; animation-delay: 0s;"></circle></g></g><g class="ldl-layer" style="animation-play-state: running; animation-delay: 0s;"><g class="ldl-ani" style="transform-origin: 50px 50px; transform: scale(0.91); animation: 1.25s linear -1.04167s infinite normal forwards running breath-a75bdb9f-71a3-41a9-a42b-c3f513745e19;"><path fill="#b3b3b3" clip-rule="evenodd" fill-rule="evenodd" d="M75 53.4c0-3.8-2.5-7.1-5.9-8.2.1-.8.2-1.6.2-2.4 0-9-7.3-16.4-16.4-16.4-7.8 0-14.3 5.4-16 12.7h-.4C30.1 39 25 44.1 25 50.5 25 56.8 30.1 62 36.5 62h31v-.1c4.2-.6 7.5-4.2 7.5-8.5z" style="fill: rgb(236, 241, 246); animation-play-state: running; animation-delay: 0s;"></path></g></g><g class="ldl-layer" style="animation-play-state: running; animation-delay: 0s;"><g class="ldl-ani" style="transform-origin: 50px 50px; transform: scale(0.91); animation: 1.25s linear -1.25s infinite normal forwards running breath-a75bdb9f-71a3-41a9-a42b-c3f513745e19;"><path d="M65.6 62.3l-.4-.4-12.8-12.8-.4-.4-.7-.7-.7.7-.4.4-12.8 12.8-.4.4-.7.7.7.7.4.4 2.6 2.6.4.4.7.7.7-.7.4-.4 5.7-5.8V74.7h6.8V60.9l5.7 5.8.4.4.7.7.7-.7.4-.4 2.6-2.6.4-.4.7-.7z" fill="#fff" style="fill: rgb(0, 0, 0); animation-play-state: running; animation-delay: 0s;"></path></g></g><metadata xmlns:d="https://loading.io/stock/" style="animation-play-state: running; animation-delay: 0s;"><d:name style="animation-play-state: running; animation-delay: 0s;">upload</d:name><d:tags style="animation-play-state: running; animation-delay: 0s;">upload,cloud,top,send,share,ftp</d:tags><d:license style="animation-play-state: running; animation-delay: 0s;">by</d:license><d:slug style="animation-play-state: running; animation-delay: 0s;">mayqm5</d:slug></metadata></g></g><style id="breath-a75bdb9f-71a3-41a9-a42b-c3f513745e19" data-anikit="">@keyframes breath-a75bdb9f-71a3-41a9-a42b-c3f513745e19
{
  0% {
    animation-timing-function: cubic-bezier(0.9647,0.2413,-0.0705,0.7911);
    transform: scale(0.9099999999999999);
  }
  51% {
    animation-timing-function: cubic-bezier(0.9226,0.2631,-0.0308,0.7628);
    transform: scale(1.02994);
  }
  100% {
    transform: scale(0.9099999999999999);
  }
}</style><!-- [ldio] generated by https://loading.io/ --></svg>